<?xml version="1.0" standalone="no"?>
<!DOCTYPE svg PUBLIC "-//W3C//DTD SVG 20010904//EN"
 "http://www.w3.org/TR/2001/REC-SVG-20010904/DTD/svg10.dtd">
<svg version="1.0" xmlns="http://www.w3.org/2000/svg"
 width="74.000000pt" height="87.000000pt" viewBox="0 0 74.000000 87.000000"
 preserveAspectRatio="xMidYMid meet">

<g transform="translate(0.000000,87.000000) scale(0.100000,-0.100000)"
fill="#000000" stroke="none">
<path d="M260 848 c1 -17 128 -188 140 -188 5 0 11 9 15 19 4 13 19 21 53 26
67 9 92 16 92 24 0 7 -277 131 -292 131 -5 0 -8 -6 -8 -12z"/>
<path d="M47 580 c-31 -25 -51 -81 -42 -118 3 -15 18 -39 33 -54 24 -26 32
-28 103 -28 l78 0 3 -160 c3 -155 4 -160 28 -185 14 -13 39 -27 56 -31 26 -5
38 -1 65 24 31 27 34 35 37 101 2 39 6 71 8 71 2 0 23 -21 46 -47 108 -120
134 -143 167 -143 43 0 68 14 86 50 28 53 20 82 -46 164 l-61 76 38 46 c71 82
84 105 84 146 0 55 -43 98 -97 98 -21 0 -43 -4 -49 -8 -6 -4 -11 -34 -10 -69
1 -48 -4 -68 -20 -90 -47 -64 -134 -94 -164 -58 -18 22 1 39 45 41 67 2 112
78 85 143 -19 46 -44 51 -254 51 -179 0 -195 -2 -219 -20z"/>
</g>
</svg>
